<svg xmlns="http://www.w3.org/2000/svg" version="1.1" xmlns:xlink="http://www.w3.org/1999/xlink" xmlns:svgjs="http://svgjs.com/svgjs" width="512" height="512" x="0" y="0" viewBox="0 0 24 24" style="enable-background:new 0 0 512 512" xml:space="preserve" class=""><g><g data-name="Layer 2"><rect width="19.5" height="17.5" x="1.25" y="2.75" fill="#0db561" rx="1.5" data-original="#0db561" class=""></rect><circle cx="17.5" cy="17.5" r="5.25" fill="#ffcb27" data-original="#ffcb27"></circle><path fill="#1c5e3f" d="M6 4.75A.76.76 0 0 1 5.25 4V2a.75.75 0 0 1 1.5 0v2a.76.76 0 0 1-.75.75zM11 4.75a.76.76 0 0 1-.75-.75V2a.75.75 0 0 1 1.5 0v2a.76.76 0 0 1-.75.75zM16 4.75a.76.76 0 0 1-.75-.75V2a.75.75 0 0 1 1.5 0v2a.76.76 0 0 1-.75.75z" data-original="#1c5e3f"></path><g fill="#fff"><circle cx="6" cy="8.5" r="1" fill="#ffffff" data-original="#ffffff" class=""></circle><circle cx="6" cy="12" r="1" fill="#ffffff" data-original="#ffffff" class=""></circle><circle cx="6" cy="15.5" r="1" fill="#ffffff" data-original="#ffffff" class=""></circle><circle cx="11" cy="8.5" r="1" fill="#ffffff" data-original="#ffffff" class=""></circle><circle cx="11" cy="12" r="1" fill="#ffffff" data-original="#ffffff" class=""></circle><circle cx="11" cy="15.5" r="1" fill="#ffffff" data-original="#ffffff" class=""></circle><circle cx="16" cy="8.5" r="1" fill="#ffffff" data-original="#ffffff" class=""></circle><path d="M18.5 20a.75.75 0 0 1-.61-.32l-1-1.39a.77.77 0 0 1-.14-.44v-2a.75.75 0 1 1 1.5 0v1.76l.86 1.2a.75.75 0 0 1-.17 1 .73.73 0 0 1-.44.19z" fill="#ffffff" data-original="#ffffff" class=""></path></g></g></g></svg>