<svg xmlns="http://www.w3.org/2000/svg" version="1.1" xmlns:xlink="http://www.w3.org/1999/xlink" xmlns:svgjs="http://svgjs.com/svgjs" width="512" height="512" x="0" y="0" viewBox="0 0 32 32" style="enable-background:new 0 0 512 512" xml:space="preserve" class=""><g><path d="M21 8H5c-1.7 0-3 1.3-3 3v16c0 1.7 1.3 3 3 3h16c1.7 0 3-1.3 3-3V11c0-1.7-1.3-3-3-3zm-4 12h-3v2c0 .6-.4 1-1 1s-1-.4-1-1v-2H9c-.6 0-1-.4-1-1s.4-1 1-1h3v-2c0-.6.4-1 1-1s1 .4 1 1v2h3c.6 0 1 .4 1 1s-.4 1-1 1z" fill="#088b0c" data-original="#000000" opacity="1" class=""></path><path d="M27 2H11C9.3 2 8 3.3 8 5v2h13c2.2 0 4 1.8 4 4v13h2c1.7 0 3-1.3 3-3V5c0-1.7-1.3-3-3-3z" fill="#088b0c" data-original="#000000" opacity="1" class=""></path></g></svg>