<svg xmlns="http://www.w3.org/2000/svg" version="1.1" xmlns:xlink="http://www.w3.org/1999/xlink" xmlns:svgjs="http://svgjs.com/svgjs" width="512" height="512" x="0" y="0" viewBox="0 0 24 24" style="enable-background:new 0 0 512 512" xml:space="preserve" class=""><circle r="12" cx="12" cy="12" fill="#64afe9" shape="circle"></circle><g transform="matrix(0.7,0,0,0.7,3.6000000000000014,3.6000000000000014)"><path d="M12 24C5.383 24 0 18.617 0 12S5.383 0 12 0s12 5.383 12 12-5.383 12-12 12zm0-23C5.935 1 1 5.935 1 12s4.935 11 11 11 11-4.935 11-11S18.065 1 12 1z" fill="#ffffff" data-original="#000000" opacity="1" class=""></path><path d="M7.5 19h-1c-.827 0-1.5-.673-1.5-1.5v-7.043c0-.827.673-1.5 1.5-1.5h1c.827 0 1.5.673 1.5 1.5V17.5c0 .827-.673 1.5-1.5 1.5zm-1-9.043a.5.5 0 0 0-.5.5V17.5a.5.5 0 0 0 .5.5h1a.5.5 0 0 0 .5-.5v-7.043a.5.5 0 0 0-.5-.5z" fill="#ffffff" data-original="#000000" opacity="1" class=""></path><path d="M15.579 19h-1.036c-4.362 0-6.272-1.458-6.352-1.52a.499.499 0 1 1 .617-.787c.015.012 1.757 1.307 5.735 1.307h1.036c.864 0 1.595-.619 1.737-1.471l.66-3.957a1.757 1.757 0 0 0-.394-1.428 1.757 1.757 0 0 0-1.343-.623h-3.391a.5.5 0 0 1-.416-.777c.003-.005.481-.757.481-1.984C12.913 6.469 12.367 6 12 6c-.163 0-.348 0-.348 1.196 0 2.252-2.798 3.769-2.917 3.833a.5.5 0 0 1-.471-.882c.024-.013 2.388-1.299 2.388-2.95 0-.769 0-2.197 1.348-2.197.662 0 1.913.577 1.913 2.761 0 .731-.139 1.33-.289 1.761h2.614a2.761 2.761 0 0 1 2.723 3.214l-.66 3.957A2.749 2.749 0 0 1 15.579 19z" fill="#ffffff" data-original="#000000" opacity="1" class=""></path></g></svg>