<svg xmlns="http://www.w3.org/2000/svg" version="1.1" xmlns:xlink="http://www.w3.org/1999/xlink" xmlns:svgjs="http://svgjs.com/svgjs" width="512" height="512" x="0" y="0" viewBox="0 0 32 32" style="enable-background:new 0 0 512 512" xml:space="preserve" class=""><g><path d="M28.258 20.768a1 1 0 0 0-1.366.366l-2.648-1.529a8.925 8.925 0 0 0 .699-2.616c.02.001.037.011.057.011h2a1 1 0 1 0 0-2h-2c-.02 0-.037.01-.057.011a8.948 8.948 0 0 0-.699-2.616l2.648-1.529a1.002 1.002 0 0 0 1.366.366 1 1 0 0 0 .366-1.366l-1-1.732a1 1 0 0 0-1.732 1l-2.655 1.533a9.013 9.013 0 0 0-1.863-1.873l1.463-2.247a1 1 0 1 0-1.675-1.092l-1.513 2.324A8.887 8.887 0 0 0 17 7.059V4a1 1 0 1 0 0-2h-2a1 1 0 1 0 0 2v3.059a8.916 8.916 0 0 0-2.649.719l-1.513-2.324a1 1 0 1 0-1.676 1.092l1.463 2.247a9.037 9.037 0 0 0-1.863 1.873L6.108 9.134a1 1 0 1 0-1.733-1l-1 1.732a1 1 0 0 0 1.732 1l2.648 1.529a8.925 8.925 0 0 0-.699 2.616C7.037 15.01 7.02 15 7 15H5a1 1 0 1 0 0 2h2c.02 0 .037-.01.057-.011.101.922.342 1.8.699 2.616l-2.648 1.529a1 1 0 1 0-1.732 1l1 1.732a1.002 1.002 0 0 0 1.366.366 1 1 0 0 0 .366-1.366l2.655-1.533a9.013 9.013 0 0 0 1.863 1.873l-1.463 2.247a1.001 1.001 0 0 0 1.675 1.093l1.513-2.324a8.924 8.924 0 0 0 2.649.719V28a1 1 0 1 0 0 2h2a1 1 0 1 0 0-2v-3.059a8.916 8.916 0 0 0 2.649-.719l1.513 2.324a1 1 0 1 0 1.675-1.092l-1.463-2.247a9.037 9.037 0 0 0 1.863-1.873l2.655 1.533a1 1 0 0 0 1.732 1l1-1.732a1.001 1.001 0 0 0-.366-1.367zM12 20a2 2 0 1 1-.001-3.999A2 2 0 0 1 12 20zm4.5-7a1.5 1.5 0 1 1 .001-3.001A1.5 1.5 0 0 1 16.5 13zm1.5 6.5a1.5 1.5 0 1 1 3.001.001A1.5 1.5 0 0 1 18 19.5z" fill="#13a310" data-original="#000000" opacity="1" class=""></path></g></svg>