<svg xmlns="http://www.w3.org/2000/svg" version="1.1" xmlns:xlink="http://www.w3.org/1999/xlink" xmlns:svgjs="http://svgjs.com/svgjs" width="512" height="512" x="0" y="0" viewBox="0 0 152 152" style="enable-background:new 0 0 512 512" xml:space="preserve" class=""><g transform="matrix(-1,0,0,1,152.00001525878906,0)"><linearGradient id="a" x1="42.06" x2="64.15" y1="75.83" y2="97.92" gradientUnits="userSpaceOnUse"><stop offset="0" stop-color="#b71c1c"></stop><stop offset="1" stop-color="#b71c1c" stop-opacity="0"></stop></linearGradient><linearGradient xlink:href="#a" id="b" x1="70.79" x2="136.52" y1="57.23" y2="122.96"></linearGradient><g data-name="Layer 2"><g data-name="06.Dislike"><circle cx="76" cy="76" r="76" fill="#f72828" data-original="#eb2540" opacity="1" class=""></circle><path fill="url(#a)" d="M63.4 84.16s-5.75 11.39-5.75 20.17v.09L35.56 82.33a6.58 6.58 0 0 0 4.57 1.83z" data-original="url(#a)"></path><path fill="url(#b)" d="M152 76a76 76 0 0 1-55 73.07l-34-34a12 12 0 0 0 4.9.92c2.64 0 1.79-9.82 2.43-13.64 1-6 20.22-17 20.22-23V41.26a4.78 4.78 0 0 0-.93-2.84l5.83 5.83v35.06a4.88 4.88 0 0 0 4.87 4.85h13.34a4.88 4.88 0 0 0 4.86-4.85V41.26a4.82 4.82 0 0 0-1.37-3.35l34.8 34.79c.05 1.09.05 2.19.05 3.3z" data-original="url(#b)" class=""></path><path fill="#ffffff" d="M95.43 41.26a4.88 4.88 0 0 1 4.87-4.84h13.34a4.87 4.87 0 0 1 4.86 4.84v38.05a4.88 4.88 0 0 1-4.86 4.85H100.3a4.88 4.88 0 0 1-4.87-4.85zM38.64 71.07a6.63 6.63 0 0 1 2.66-11.63 6.62 6.62 0 0 1 2.64-11.63A6.64 6.64 0 0 1 48.07 36l37.62.42a4.86 4.86 0 0 1 4.84 4.84v38.05c0 6-19.19 17.08-20.22 23-.64 3.82.21 13.64-2.43 13.64-4.48 0-10.23-1.72-10.23-11.67 0-8.78 5.75-20.17 5.75-20.17H40.13a6.63 6.63 0 0 1-1.49-13.09z" data-original="#ffffff" class=""></path></g></g></g></svg>