<svg xmlns="http://www.w3.org/2000/svg" version="1.1" xmlns:xlink="http://www.w3.org/1999/xlink" xmlns:svgjs="http://svgjs.com/svgjs" width="512" height="512" x="0" y="0" viewBox="0 0 512 512" style="enable-background:new 0 0 512 512" xml:space="preserve" class=""><g><path d="M502.6 223.3C461.1 182.7 366.3 103.7 256 103.7c-25.8.2-51.4 4.2-76 12l36.1 36.1c52.5-22 113 2.7 135 55.2 10.7 25.5 10.7 54.3 0 79.9l56.9 56.9c41.3-24.5 74.3-53.5 94.6-73.4 12.5-12.4 12.5-34.8 0-47.1z" fill="grey" data-original="#000000" class=""></path><path d="M256 174.7c-5.2 0-10.3.6-15.4 1.6l85.9 85.9c8.5-38.9-16.2-77.4-55.2-85.9-5-1.1-10.1-1.6-15.3-1.6zM73.5 63.4c-9.6-9.6-25.1-9.6-34.7 0-9.6 9.6-9.6 25.1 0 34.7l57 56.9c-37.5 23.4-67.5 49.9-86.4 68.4-12.6 12.3-12.6 34.7 0 47C50.8 310.9 145.7 389.9 256 389.9c22.2-.1 44.3-3.1 65.8-9l67.7 67.7c9.6 9.6 25.1 9.6 34.7 0 9.6-9.6 9.6-25.1 0-34.7zM256 350c-57 0-103.2-46.2-103.1-103.2 0-10.2 1.5-20.4 4.5-30.2l26.6 26.6c-.1 1.2-.1 2.5-.1 3.7 0 39.8 32.3 72.1 72.1 72.1 1.2 0 2.5 0 3.7-.1l26.6 26.6c-9.8 2.9-20 4.5-30.3 4.5z" fill="grey" data-original="#000000" class=""></path></g></svg>