<svg xmlns="http://www.w3.org/2000/svg" version="1.1" xmlns:xlink="http://www.w3.org/1999/xlink" xmlns:svgjs="http://svgjs.com/svgjs" width="512" height="512" x="0" y="0" viewBox="0 0 512 512" style="enable-background:new 0 0 512 512" xml:space="preserve" class=""><g><path fill="#70dcba" d="M282.231 504.5h35.249c33.137 0 60-26.863 60-60v-19.005c0-12.426-10.074-22.5-22.5-22.5h-12.749c-33.137 0-60 26.863-60 60z" data-original="#70dcba"></path><path fill="#30cd9c" d="M317.48 504.5h-80.249v-45h-35.249c-33.137 0-60-26.863-60-60v-19.005c0-12.427 10.073-22.5 22.5-22.5h12.749c33.137 0 60 26.863 60 60v-112.5h45v163.756c0 19.477 15.899 35.249 35.249 35.249z" data-original="#30cd9c" class=""></path><path fill="#b9f0ff" d="M415.637 156.646a159.576 159.576 0 0 0-4.919-30L325.294 23.28c-11.955-5.754-24.848-10.164-38.727-12.85l-.1-.019-138.258 50.668v224.205l138.268 39.305c12.149-2.278 25.371-6.489 37.84-12.386z" data-original="#b9f0ff" class=""></path><g fill="#7ce3ff"><path d="M148.209 264.161V155.283l-52.161 8.405c-.64 27.521 5.664 54.318 18.382 78.403l61.815 64.141c23.479 13.527 50.714 21.267 79.757 21.268 10.423 0 20.608-1.009 30.475-2.912z" fill="#7ce3ff" data-original="#7ce3ff"></path><path d="M191.318 167.497c0-6.533.364-12.98 1.053-19.33l-44.162 7.116V264.16l138.268 60.427c-56.558-29.597-95.159-88.831-95.159-157.09z" fill="#7ce3ff" data-original="#7ce3ff"></path></g><g fill="#30cd9c"><path d="m210.684 144.872 10.342 4.527c3.861 1.69 6.823 4.83 8.624 8.641a12.635 12.635 0 0 0 12.039 7.226c6.624-.312 12.023-6.344 12.023-12.976v-31.386a83.864 83.864 0 0 1 16.428-49.856l.001-.002a83.864 83.864 0 0 0 16.428-49.856V10.43c-.033-.007-.067-.012-.1-.018l-94.095 34.483v103.273a16.706 16.706 0 0 1 18.31-3.296zM415.637 156.646l-88.226-.002c-22.916 0-41.523 18.592-41.522 41.522v16.28a52.92 52.92 0 0 0 15.5 37.42c9.641 9.642 15.334 22.447 15.512 37.884a38.962 38.962 0 0 0 7.414 22.451c54.19-25.625 91.684-80.776 91.683-144.7.002-3.647-.12-7.268-.361-10.855zM331.875 67.352l8.964 7.534c5.617 4.672 7.743 12.336 5.244 19.202-1.353 3.717-4.022 6.615-7.369 8.377-4.243 2.234-7.048 6.474-7.048 11.269v.002c0 7.13 5.78 12.91 12.91 12.91l66.144.001C398.733 81.148 367.204 43.45 325.294 23.28c-.011 9.579-.007 23.029.093 26.123.306 9.388 2.124 14.272 6.488 17.949z" fill="#30cd9c" data-original="#30cd9c" class=""></path></g><path fill="#0caf7b" d="M175.353 214.985c-7.912-7.912-14.908-13.154-14.908-24.908a24.143 24.143 0 0 1 7.071-17.071l23.932-23.932.709-.708c.057-.058.12-.108.178-.165l.037-.033c6.509-59.99 42.956-110.989 94.095-137.756A160.728 160.728 0 0 0 255.998 7.5c-.765 0-1.526.018-2.289.029C167.67 8.736 98.053 77.844 96.048 163.688l36.93 36.922c6.333 6.333 6.333 16.601 0 22.933l-18.549 18.549a160.745 160.745 0 0 0 61.815 64.141c24.528-25.507 24.255-66.101-.891-91.248z" data-original="#0caf7b" class=""></path><path d="M396.778 258.286c17.481-27.046 26.722-58.438 26.722-90.784 0-43.945-17.019-84.254-45.04-114.265C347.353 19.923 303.431 0 255.998 0c-30.41 0-61.429 8.298-88.876 25.509a7.502 7.502 0 0 0-2.37 10.339 7.5 7.5 0 0 0 10.338 2.37C200.131 22.515 228.387 15 255.998 15c7.72 0 15.469.598 23.069 1.753v4.437c0 16.227-5.312 32.35-14.959 45.398-11.542 15.612-17.897 34.901-17.897 54.315v31.386c0 2.701-2.37 5.366-4.875 5.485a5.137 5.137 0 0 1-4.905-2.938c-2.644-5.596-7.047-9.966-12.397-12.307l-10.341-4.527c-8.995-3.939-19.372-2.092-26.462 4.704a9.638 9.638 0 0 0-.376.355l-24.641 24.641c-5.977 5.977-9.268 13.923-9.268 22.376.001 15.165 9.189 22.291 17.105 30.211 20.634 20.634 22.264 53.679 4.674 76.256a152.758 152.758 0 0 1-51.004-53.136l14.562-14.562c9.247-9.245 9.248-24.291 0-33.541l-34.622-34.613c1.758-40.331 18.994-77.555 48.763-105.114a7.5 7.5 0 0 0 .408-10.599 7.498 7.498 0 0 0-10.599-.409C106.818 77.356 88.5 121.614 88.5 167.498c.001 82.021 59.562 152.484 141.231 165.42v42.695c-12.385-15.312-31.318-25.118-52.5-25.118h-12.749c-16.542 0-30 13.458-30 30V399.5c0 37.22 30.28 67.5 67.5 67.5h27.749v37.5c0 4.143 3.358 7.5 7.5 7.5s7.5-3.357 7.5-7.5V334.616c9.948.67 19.78.47 30-.673v129.052c0 4.143 3.358 7.5 7.5 7.5s7.5-3.357 7.5-7.5c0-28.948 23.551-52.5 52.5-52.5h12.749c8.271 0 15 6.729 15 15V444.5c0 28.948-23.552 52.5-52.5 52.5h-18.287l33.998-34.853a7.5 7.5 0 0 0-10.606-10.607L277.998 497h-11.266c-4.142 0-7.5 3.357-7.5 7.5s3.358 7.5 7.5 7.5h50.749c37.22 0 67.5-30.28 67.5-67.5v-19.005c0-16.542-13.458-30-30-30h-12.749c-21.187 0-40.116 9.82-52.5 25.139V331.57c44.17-9.038 82.652-35.544 107.046-73.284zm-292.522-75.787 23.419 23.413c3.398 3.399 3.399 8.93 0 12.327l-11.089 11.089a153.017 153.017 0 0 1-12.33-46.829zm125.475 248.288-32.512-32.511c-2.929-2.929-7.677-2.929-10.606 0s-2.929 7.678 0 10.606L229.731 452h-27.749c-28.949 0-52.5-23.552-52.5-52.5v-19.005c0-8.271 6.729-15 15-15h12.749c28.949 0 52.5 23.552 52.5 52.5zm97.503-128.454a31.417 31.417 0 0 1-2.833-12.669c-.195-16.805-6.318-31.709-17.708-43.101-8.579-8.578-13.303-19.984-13.304-32.117v-16.28c-.001-18.793 15.222-34.021 34.021-34.021l81.033.002c1.263 58.45-31.24 111.714-81.209 138.186zm73.429-183.187-56.089-.001c-5.308 0-7.792-7.187-2.366-10.045 15.053-7.927 16.662-28.972 3.455-39.956l-8.955-7.527c-1.854-1.562-3.54-3.688-3.824-12.456-.042-1.279-.091-4.656-.094-13.373 31.657 18.571 56.16 48.368 67.873 83.358zM187.909 303.972c19.76-26.917 20.65-67.154-10.072-97.06-6.86-6.679-9.893-9.923-9.893-16.835 0-4.445 1.731-8.625 4.875-11.768l24.534-24.534.08-.073.149-.14a9.185 9.185 0 0 1 10.095-1.82l10.343 4.528c2.032.889 3.754 2.655 4.851 4.976a20.084 20.084 0 0 0 19.172 11.511c10.57-.498 19.169-9.681 19.169-20.468v-31.386c0-16.227 5.312-32.35 14.959-45.398 11.291-15.274 17.897-34.024 17.897-55.692a148.6 148.6 0 0 1 23.731 8.268c-.009 3.998-.036 17.595.093 21.565.272 8.399 1.57 17.053 9.158 23.446l8.993 7.558c5.035 4.189 4.771 12.228-.823 15.178-19.176 10.095-11.585 38.316 9.355 38.316l60.253.001a152.54 152.54 0 0 1 2.569 15l-79.985-.001c-27.081 0-49.022 21.93-49.021 49.021v16.28c0 16.14 6.286 31.313 17.697 42.724 8.686 8.687 13.166 19.678 13.316 32.669a46.342 46.342 0 0 0 4.226 18.862c-40.986 16.749-86.921 14.64-125.721-4.728z" fill="#000000" data-original="#000000" class=""></path><path d="M188.406 179.134a7.503 7.503 0 0 0-7.5 7.5v12a7.5 7.5 0 0 0 15.001 0v-12a7.5 7.5 0 0 0-7.501-7.5zM313.303 179.133a7.502 7.502 0 0 0-7.5 7.5v12a7.5 7.5 0 0 0 15.001 0v-12a7.501 7.501 0 0 0-7.501-7.5zM272.246 192.621a7.5 7.5 0 0 0-10.582.728c-5.749 6.582-15.911 6.551-21.619 0a7.501 7.501 0 0 0-10.582-.727 7.495 7.495 0 0 0-.727 10.582c11.667 13.387 32.492 13.458 44.237-.001a7.499 7.499 0 0 0-.727-10.582z" fill="#000000" data-original="#000000" class=""></path></g></svg>