<svg xmlns="http://www.w3.org/2000/svg" version="1.1" xmlns:xlink="http://www.w3.org/1999/xlink" xmlns:svgjs="http://svgjs.com/svgjs" width="512" height="512" x="0" y="0" viewBox="0 0 512 512" style="enable-background:new 0 0 512 512" xml:space="preserve" class=""><g><circle cx="256" cy="91" r="15" fill="#17751e" data-original="#000000" opacity="1" class=""></circle><path d="M256 1c-73.944 0-116.226 84.34-71.987 143.589l59.967 80.313c5.999 8.034 18.04 8.034 24.038 0l59.967-80.313C372.226 85.34 329.944 1 256 1zm0 135c-24.813 0-45-20.187-45-45s20.187-45 45-45 45 20.187 45 45-20.186 45-45 45zM219.942 242.851l-35.295-47.27-36.627 280.355L241 506.803v-248.48c-8.297-2.948-15.693-8.286-21.058-15.472zM271 258.323v248.481l92.979-30.867-36.627-280.355-35.295 47.27c-5.365 7.185-12.76 12.523-21.057 15.471zM511.495 492.186l-80.995-310a14.997 14.997 0 0 0-7.804-9.624l-58.847-29.426a121.322 121.322 0 0 1-10.753 17.913l41.375 316.703 97.786 32.462c11.294 3.749 22.246-6.515 19.238-18.028zM89.303 172.562a14.997 14.997 0 0 0-7.804 9.624l-80.995 310c-3.008 11.513 7.944 21.777 19.237 18.028l97.786-32.462 41.376-316.702a121.338 121.338 0 0 1-10.754-17.914z" fill="#17751e" data-original="#000000" opacity="1" class=""></path></g></svg>