<svg xmlns="http://www.w3.org/2000/svg" version="1.1" xmlns:xlink="http://www.w3.org/1999/xlink" xmlns:svgjs="http://svgjs.com/svgjs" width="512" height="512" x="0" y="0" viewBox="0 0 512 512" style="enable-background:new 0 0 512 512" xml:space="preserve" class=""><g><path d="M376.948 88.205c-4.864 13.154-17.531 22.558-32.355 22.558a5 5 0 0 1 0-10c9.172 0 17.178-5.073 21.371-12.558h-47.522c-4.864 13.154-17.532 22.558-32.356 22.558a5 5 0 0 1 0-10c9.172 0 17.175-5.073 21.367-12.558h-47.517c-4.864 13.154-17.531 22.558-32.355 22.558a5 5 0 0 1 0-10c9.172 0 17.175-5.073 21.366-12.558H201.43c-4.864 13.154-17.531 22.558-32.355 22.558a5 5 0 0 1 0-10c9.172 0 17.175-5.073 21.366-12.558H116v380h280v-380zm-160.11 313.069-35.465 35.466a5 5 0 0 1-7.071 0l-15.2-15.2a5 5 0 0 1 7.071-7.07l11.664 11.664 31.93-31.93a5 5 0 1 1 7.071 7.07zm0-71.651-35.465 35.466a5 5 0 0 1-7.071 0l-15.2-15.199a5 5 0 1 1 7.071-7.07l11.664 11.663 31.93-31.93a5 5 0 1 1 7.071 7.07zm0-71.65-35.465 35.465a5 5 0 0 1-7.071 0l-15.2-15.199a5 5 0 1 1 7.071-7.07l11.664 11.663 31.93-31.93a5.001 5.001 0 0 1 7.071 7.071zm0-71.651-35.465 35.465a5 5 0 0 1-7.071 0l-15.2-15.199a5 5 0 1 1 7.071-7.071l11.664 11.664 31.93-31.93a5.001 5.001 0 0 1 7.071 7.071zm39.201-1.986h42.991a5 5 0 0 1 0 10h-42.991a5 5 0 0 1 0-10zm93.146 253.614h-93.146a5 5 0 1 1 0-10h93.146a5 5 0 1 1 0 10zm-98.146-33.66a5 5 0 0 1 5-5h42.991a5 5 0 1 1 0 10h-42.991a5 5 0 0 1-5-5zm98.146-37.991h-93.146a5 5 0 1 1 0-10h93.146a5 5 0 1 1 0 10zm-98.146-33.66a5 5 0 0 1 5-5h42.991a5 5 0 1 1 0 10h-42.991a5 5 0 0 1-5-5zm98.146-37.991h-93.146a5 5 0 1 1 0-10h93.146a5 5 0 1 1 0 10zm-98.146-33.661a5 5 0 0 1 5-5h42.991a5 5 0 1 1 0 10h-42.991a5 5 0 0 1-5-5zm98.146-37.99h-93.146a5 5 0 0 1 0-10h93.146a5 5 0 0 1 0 10z" fill="#11610f" data-original="#000000" opacity="1" class=""></path><path d="M203.367 72.659c1.755-11.789 11.944-20.863 24.214-20.863 12.269 0 22.458 9.073 24.214 20.862a34.685 34.685 0 0 0-.191 3.622c0 .675.137 1.316.38 1.904a24.32 24.32 0 0 1-3.036 10.022h10.989a34.404 34.404 0 0 0 1.937-15.548c1.756-11.789 11.944-20.862 24.214-20.862s22.458 9.073 24.214 20.862a34.685 34.685 0 0 0-.191 3.622c0 .675.137 1.316.38 1.904a24.32 24.32 0 0 1-3.036 10.022h10.989a34.404 34.404 0 0 0 1.937-15.548c1.756-11.789 11.944-20.862 24.214-20.862 13.5 0 24.483 10.983 24.483 24.483 0 4.328-1.133 8.394-3.112 11.926h10.984a34.317 34.317 0 0 0 2.128-11.926c0-19.014-15.469-34.483-34.483-34.483-12.325 0-23.154 6.504-29.253 16.256-6.099-9.752-16.928-16.256-29.253-16.256s-23.154 6.504-29.253 16.256c-6.098-9.752-16.928-16.256-29.253-16.256S204.428 48.3 198.33 58.052c-6.098-9.752-16.928-16.256-29.253-16.256-19.014 0-34.483 15.469-34.483 34.483a5 5 0 0 0 10 0c0-13.5 10.983-24.483 24.483-24.483 12.27 0 22.459 9.074 24.214 20.863a34.632 34.632 0 0 0-.191 3.62c0 .674.137 1.315.379 1.902a24.32 24.32 0 0 1-3.036 10.023h10.989a34.44 34.44 0 0 0 1.935-15.545z" fill="#11610f" data-original="#000000" opacity="1" class=""></path></g></svg>