<svg xmlns="http://www.w3.org/2000/svg" version="1.1" xmlns:xlink="http://www.w3.org/1999/xlink" xmlns:svgjs="http://svgjs.com/svgjs" width="512" height="512" x="0" y="0" viewBox="0 0 512 512" style="enable-background:new 0 0 512 512" xml:space="preserve" class=""><g><path d="M464.871 0H239.93c-26.032 0-47.13 21.102-47.13 47.129v110.8c11.891 5.91 24.74 12.301 36.731 18.262l18.348-36.71c11.11-22.2 38.191-31.22 60.383-20.13 22.238 11.13 31.25 38.137 20.117 60.38l-32.707 65.43A68.33 68.33 0 0 1 293.328 271h21.594l-56.953 156.61c-3.38 9.288 3.152 20.128 14.101 20.128 6.121 0 11.88-3.777 14.09-9.879L346.84 271h10.512l61.296 166.91c2.23 6.07 7.973 9.828 14.09 9.828 10.23 0 17.73-10.218 14.07-20.168L389.309 271h75.563C490.898 271 512 249.898 512 223.871V47.13C512 21.102 490.898 0 464.871 0zm-32.14 206.738H365.43c-8.282 0-15-6.718-15-15 0-8.289 6.718-15 15-15h67.3c8.29 0 15 6.711 15 15 0 8.282-6.71 15-15 15zm0-56.238H365.43c-8.282 0-15-6.71-15-15 0-8.281 6.718-15 15-15h67.3c8.29 0 15 6.719 15 15 0 8.29-6.71 15-15 15zm0-56.23H272.07c-8.29 0-15-6.72-15-15s6.71-15 15-15h160.66c8.289 0 15 6.718 15 15s-6.711 15-15 15zm0 0" fill="#0a8920" data-original="#000000" opacity="1" class=""></path><path d="M263.922 264.566c2.71-7.941 2.691-16.238.402-23.808l37.227-74.446c3.703-7.41.703-16.421-6.707-20.125-7.406-3.707-16.418-.703-20.125 6.708l-31.75 63.492c-18.977-9.45-47.809-23.785-71.035-35.336-21.61-10.746-37.032-20.383-63.344-20.383H95.336c20.488 0 38.773-9.43 50.742-24.188 9.133-11.23 14.594-25.543 14.594-41.14 0-36.09-29.25-65.34-65.344-65.34C59.25 30 30 59.25 30 95.34c0 17.332 6.75 33.082 17.762 44.77 11.906 12.66 28.816 20.558 47.562 20.562-25.133 0-49.703 10.183-67.379 27.906C9.925 206.551 0 230.496 0 256.004v48.2c0 20.75 13.473 38.405 32.133 44.687v83.843c0 8.286 6.715 15 15 15h96.398c8.285 0 15-6.714 15-15V264.2c14.223 7.11 32.907 16.45 48.024 24.012 10.597 5.297 22.98 5.773 34.023 1.281 11.012-4.531 19.5-13.55 23.285-24.75l.059-.176zm0 0" fill="#0a8920" data-original="#000000" opacity="1" class=""></path></g></svg>